<svg xmlns="http://www.w3.org/2000/svg" viewBox="0 0 512 512"><rect width="512" height="512" rx="112" fill="#0A0B0D"/><defs><linearGradient id="amGrad" x1="0" y1="0" x2="0" y2="1"><stop offset="0" stop-color="#FFFFFF"/><stop offset=".55" stop-color="#DCE0E5"/><stop offset="1" stop-color="#9FA5AD"/></linearGradient><linearGradient id="amFloor" x1="0" y1="0" x2="1" y2="0"><stop offset="0" stop-color="#FF7A1A" stop-opacity="0"/><stop offset=".35" stop-color="#FF7A1A"/><stop offset="1" stop-color="#FF7A1A"/></linearGradient></defs><style>.lm-l{fill:url(#amGrad)}.lm-p{fill:#2C3038}.lm-o{fill:#FF7A1A}.lm-f{fill:url(#amFloor)}</style><g transform="translate(71.7 105.0) scale(2.8800)"><path class="lm-p" d="M39.5 104L54.5 104L54.5 57.8L46.4 67.1L39.5 57.4Z"/><path class="lm-l" d="M15 23.3L46.4 67.1L81.4 27L108.5 54.1L108.5 104L123.5 104L123.5 47.9L80.6 5L47.6 42.9L16.7 0L-1 0L-1 1L0 2.4L0 104L15 104Z"/><rect x="64" y="57" width="37" height="47" rx="1.4" fill="#0E1115" stroke="#3E444E" stroke-width="1.4"/><rect x="66.5" y="59.5" width="32" height="44" rx=".8" fill="none" stroke="#1F242B" stroke-width="1"/><rect x="69" y="63" width="20" height="2.6" rx=".5" fill="#262B33"/><rect x="69" y="68" width="20" height="2.6" rx=".5" fill="#262B33"/><rect x="69" y="73" width="20" height="2.6" rx=".5" fill="#262B33"/><rect x="69" y="78" width="20" height="2.6" rx=".5" fill="#262B33"/><rect x="69" y="83" width="20" height="2.6" rx=".5" fill="#262B33"/><rect x="69" y="88" width="20" height="2.6" rx=".5" fill="#262B33"/><rect x="69" y="93" width="20" height="2.6" rx=".5" fill="#262B33"/><rect x="69" y="98" width="20" height="2.6" rx=".5" fill="#262B33"/><rect class="lm-o" x="92" y="63" width="3" height="2.6" rx=".6"/><rect class="lm-o" x="92" y="68" width="3" height="2.6" rx=".6"/><rect class="lm-o" x="92" y="73" width="3" height="2.6" rx=".6"/><rect class="lm-o" x="92" y="83" width="3" height="2.6" rx=".6"/><rect class="lm-o" x="92" y="88" width="3" height="2.6" rx=".6"/><rect class="lm-o" x="92" y="98" width="3" height="2.6" rx=".6"/><rect class="lm-f" x="39.5" y="105.5" width="88.0" height="2.4" rx="1.2"/></g></svg>